<svg width="20" height="20" viewBox="0 0 20 20" fill="none" xmlns="http://www.w3.org/2000/svg">
<path d="M12.3438 10.5859V20H17.0312C18.0005 20 18.8281 19.2115 18.8281 18.2422V10.5859H12.3438Z" fill="#1756A7"/>
<path d="M1.17188 10.5859V18.2422C1.17188 19.2115 1.96039 20 2.92969 20H7.65625V10.5859H1.17188Z" fill="#1756A7"/>
<path d="M18.2422 4.6875H15.8444C16.2162 4.19633 16.4453 3.59172 16.4453 2.92969C16.4453 1.31434 15.131 0 13.5156 0C11.471 0 10.879 1.47285 10 3.70324C9.12102 1.47285 8.52902 0 6.48438 0C4.86902 0 3.55469 1.31434 3.55469 2.92969C3.55469 3.59172 3.78379 4.19633 4.15559 4.6875H1.75781C0.788516 4.6875 0 5.47602 0 6.44531V7.65625C0 8.62555 0.788516 9.41406 1.75781 9.41406H7.65625V4.6875H6.48438C5.51508 4.6875 4.72656 3.89898 4.72656 2.92969C4.72656 1.96039 5.51508 1.17188 6.48438 1.17188C7.68543 1.17188 8.02703 1.89227 8.92484 4.17023C8.98742 4.3293 9.06547 4.51801 9.13293 4.6875H8.82812C8.82812 13.4251 8.82812 11.2586 8.82812 20H11.1719C11.1719 6.28453 11.1719 8.49687 11.1719 4.6875H10.8671C10.9346 4.51797 11.0126 4.3293 11.0752 4.17023C11.973 1.89227 12.3146 1.17188 13.5156 1.17188C14.4849 1.17188 15.2734 1.96039 15.2734 2.92969C15.2734 3.89898 14.4849 4.6875 13.5156 4.6875H12.3438V9.41406H18.2422C19.2115 9.41406 20 8.62555 20 7.65625V6.44531C20 5.47602 19.2115 4.6875 18.2422 4.6875Z" fill="#1756A7"/>
</svg>
